<?xml version="1.0" encoding="UTF-8" standalone="no"?>
<!DOCTYPE svg PUBLIC "-//W3C//DTD SVG 1.1//EN"
"http://www.w3.org/Graphics/SVG/1.1/DTD/svg11.dtd">
<svg viewBox="0 0 1237 2200" version="1.1" xmlns="http://www.w3.org/2000/svg" xmlns:xlink="http://www.w3.org/1999/xlink">
<defs>
<clipPath id="c0"><path d="M0 2200V0H1237.5V2200Z"/></clipPath>
<clipPath id="c1"><path d="M0 303.2V0H289.7V303.2Z"/></clipPath>
<clipPath id="c2"><path d="M924.7 755V320.8h312.8V755Z"/></clipPath>
<clipPath id="c3"><path d="M229.5 560c-35.4 0 -64.1 -28.7 -64.1 -64.2V467.5c0 -35.4 28.7 -64.2 64.1 -64.2h819.9c35.4 0 64.2 28.8 64.2 64.2v28.3c0 35.5 -28.8 64.2 -64.2 64.2Z"/></clipPath>
<clipPath id="c4"><path d="M229.6 560c-35.5 0 -64.2 -28.8 -64.2 -64.2V467.5c0 -35.4 28.7 -64.2 64.2 -64.2h819.7c35.5 0 64.2 28.8 64.2 64.2v28.3c0 35.4 -28.7 64.2 -64.2 64.2Z"/></clipPath>
<clipPath id="c5"><path d="M166.7 608.3c-22.2 0 -40.1 -18 -40.1 -40.1V405.1c0 -22.2 18 -40.1 40.1 -40.1H321.9c22.2 0 40.1 18 40.1 40.1V568.2c0 22.2 -17.9 40.1 -40.1 40.1Z"/></clipPath>
<clipPath id="c6"><path d="M321.9 605.4c20.6 0 37.3 -16.7 37.3 -37.3v-163c0 -20.6 -16.7 -37.3 -37.3 -37.3H166.7c-20.5 0 -37.3 16.7 -37.3 37.3v163c0 20.6 16.8 37.3 37.3 37.3Zm-155.2 5.8c-23.7 0 -42.9 -19.3 -42.9 -43V405.1c0 -23.7 19.2 -43 42.9 -43H321.9c23.7 0 43 19.3 43 43v163c0 23.8 -19.3 43.1 -43 43.1Z"/></clipPath>
<clipPath id="c7"><path d="M229.5 837.9c-35.4 0 -64.1 -28.7 -64.1 -64.2V726.9c0 -35.4 28.7 -64.2 64.1 -64.2h819.9c35.4 0 64.2 28.8 64.2 64.2v46.8c0 35.5 -28.8 64.2 -64.2 64.2Z"/></clipPath>
<clipPath id="c8"><path d="M229.6 837.9c-35.5 0 -64.2 -28.7 -64.2 -64.2V726.9c0 -35.4 28.7 -64.2 64.2 -64.2h819.7c35.5 0 64.2 28.8 64.2 64.2v46.8c0 35.5 -28.7 64.2 -64.2 64.2Z"/></clipPath>
<clipPath id="c9"><path d="M166.7 875.7c-22.2 0 -40.1 -18 -40.1 -40.1V672.5c0 -22.2 18 -40.2 40.1 -40.2H321.9c22.2 0 40.1 18 40.1 40.2V835.6c0 22.2 -17.9 40.1 -40.1 40.1Z"/></clipPath>
<clipPath id="ca"><path d="M321.9 872.8c20.6 0 37.3 -16.7 37.3 -37.3v-163c0 -20.6 -16.7 -37.3 -37.3 -37.3H166.7c-20.5 0 -37.3 16.7 -37.3 37.3v163c0 20.6 16.8 37.3 37.3 37.3Zm-155.2 5.7c-23.7 0 -42.9 -19.3 -42.9 -42.9V672.5c0 -23.7 19.2 -43 42.9 -43H321.9c23.7 0 43 19.3 43 43v163c0 23.7 -19.3 43 -43 43Z"/></clipPath>
<clipPath id="cb"><path d="M229.5 1106.4c-35.4 0 -64.1 -28.7 -64.1 -64.2V996.6c0 -35.5 28.7 -64.2 64.1 -64.2h820.1c35.4 0 64.2 28.7 64.2 64.2v45.6c0 35.5 -28.8 64.2 -64.2 64.2Z"/></clipPath>
<clipPath id="cc"><path d="M229.5 1106.4c-35.4 0 -64.1 -28.7 -64.1 -64.2V996.6c0 -35.5 28.7 -64.2 64.1 -64.2h820.1c35.4 0 64.1 28.7 64.1 64.2v45.6c0 35.5 -28.7 64.2 -64.1 64.2Z"/></clipPath>
<clipPath id="cd"><path d="M166.7 1147.4c-22.2 0 -40.1 -18 -40.1 -40.1V944.2c0 -22.2 18 -40.1 40.1 -40.1H321.9c22.2 0 40.1 18 40.1 40.1v163.1c0 22.2 -17.9 40.1 -40.1 40.1Z"/></clipPath>
<clipPath id="ce"><path d="M321.9 1144.5c20.6 0 37.3 -16.7 37.3 -37.3v-163c0 -20.6 -16.7 -37.3 -37.3 -37.3H166.7c-20.5 0 -37.3 16.7 -37.3 37.3v163c0 20.6 16.8 37.3 37.3 37.3Zm-155.2 5.8c-23.7 0 -42.9 -19.3 -42.9 -43V944.2c0 -23.7 19.2 -43 42.9 -43H321.9c23.7 0 43 19.3 43 43v163c0 23.8 -19.3 43.1 -43 43.1Z"/></clipPath>
<clipPath id="cf"><path d="M0 1952.5V1518.4H344.3v434.1Z"/></clipPath>
<clipPath id="cg"><path d="M229.5 1393.4c-35.4 0 -64.1 -28.7 -64.1 -64.2v-54c0 -35.5 28.7 -64.2 64.1 -64.2h819.9c35.4 0 64.2 28.7 64.2 64.2v54c0 35.5 -28.8 64.2 -64.2 64.2Z"/></clipPath>
<clipPath id="ch"><path d="M224.5 1393.2c-33.1 -2.6 -59.1 -30.2 -59.1 -64v-54c0 -35.5 28.7 -64.2 64.2 -64.2h819.7c35.5 0 64.2 28.7 64.2 64.2v54c0 33.8 -26 61.4 -59.1 64Z"/></clipPath>
<clipPath id="ci"><path d="M166.7 1422.8c-22.2 0 -40.1 -18 -40.1 -40.1V1219.6c0 -22.2 18 -40.2 40.1 -40.2H321.9c22.2 0 40.1 18 40.1 40.2v163.1c0 22.2 -17.9 40.1 -40.1 40.1Z"/></clipPath>
<clipPath id="cj"><path d="M321.9 1419.9c20.6 0 37.3 -16.7 37.3 -37.3v-163c0 -20.6 -16.7 -37.3 -37.3 -37.3H166.7c-20.5 0 -37.3 16.7 -37.3 37.3v163c0 20.6 16.8 37.3 37.3 37.3Zm-155.2 5.7c-23.7 0 -42.9 -19.2 -42.9 -42.9V1219.6c0 -23.7 19.2 -43 42.9 -43H321.9c23.7 0 43 19.3 43 43v163c0 23.8 -19.3 43 -43 43Z"/></clipPath>
<clipPath id="ck"><path d="M1028.9 2200V1886.5h208.6V2200Z"/></clipPath>
<clipPath id="cl"><path d="M1061.1 1099.9V922.3h105.4v177.6Z"/></clipPath>
<clipPath id="cm"><path d="M71.3 1394.5V1216.9H176.7v177.6Z"/></clipPath>
<clipPath id="cn"><path d="M1036.7 264.2V86.6h105.4V264.2Z"/></clipPath>
<clipPath id="co"><path d="M277.6 1671.1c-35.4 0 -64.2 -28.8 -64.2 -64.2v-54.1c0 -35.4 28.8 -64.1 64.2 -64.1h772c35.4 0 64.2 28.7 64.2 64.1v54.1c0 35.4 -28.8 64.2 -64.2 64.2Z"/></clipPath>
<clipPath id="cp"><path d="M272.6 1670.9c-33.1 -2.6 -59.1 -30.3 -59.1 -64v-54.1c0 -35.4 28.7 -64.1 64.1 -64.1h771.9c35.5 0 64.2 28.7 64.2 64.1v54.1c0 33.7 -26 61.4 -59.1 64Z"/></clipPath>
<clipPath id="cq"><path d="M277.6 1944c-35.4 0 -64.2 -28.7 -64.2 -64.2v-56.2c0 -35.4 28.8 -64.1 64.2 -64.1h772c35.4 0 64.2 28.7 64.2 64.1v56.2c0 35.5 -28.8 64.2 -64.2 64.2Z"/></clipPath>
<clipPath id="cr"><path d="M276.1 1944c-34.7 -.9 -62.6 -29.3 -62.6 -64.2v-56.2c0 -35.4 28.7 -64.1 64.1 -64.1h772c35.4 0 64.1 28.7 64.1 64.1v56.2c0 34.9 -27.9 63.3 -62.6 64.2Z"/></clipPath>
<clipPath id="cs"><path d="M166.7 1695.9c-22.2 0 -40.1 -18 -40.1 -40.1V1492.7c0 -22.2 18 -40.1 40.1 -40.1H321.9c22.2 0 40.1 17.9 40.1 40.1v163.1c0 22.2 -17.9 40.1 -40.1 40.1Z"/></clipPath>
<clipPath id="ct"><path d="M321.9 1693c20.6 0 37.3 -16.7 37.3 -37.3v-163c0 -20.6 -16.7 -37.3 -37.3 -37.3H166.7c-20.5 0 -37.3 16.7 -37.3 37.3v163c0 20.6 16.8 37.3 37.3 37.3Zm-155.2 5.8c-23.7 0 -42.9 -19.3 -42.9 -43V1492.7c0 -23.7 19.2 -43 42.9 -43H321.9c23.7 0 43 19.3 43 43v163c0 23.8 -19.3 43.1 -43 43.1Z"/></clipPath>
<clipPath id="cu"><path d="M166.7 1973.6c-22.2 0 -40.1 -18 -40.1 -40.1V1770.4c0 -22.2 18 -40.2 40.1 -40.2H321.9c22.2 0 40.1 18 40.1 40.2v163.1c0 22.2 -17.9 40.1 -40.1 40.1Z"/></clipPath>
<clipPath id="cv"><path d="M321.9 1970.7c20.6 0 37.3 -16.7 37.3 -37.3v-163c0 -20.6 -16.7 -37.3 -37.3 -37.3H166.7c-20.5 0 -37.3 16.7 -37.3 37.3v163c0 20.6 16.8 37.3 37.3 37.3Zm-155.2 5.7c-23.7 0 -42.9 -19.2 -42.9 -42.9V1770.4c0 -23.7 19.2 -43 42.9 -43H321.9c23.7 0 43 19.3 43 43v163c0 23.8 -19.3 43 -43 43Z"/></clipPath>
<clipPath id="cw"><path d="M455.8 523.8v-3.6h-7v3.6Zm181 0v-3.6h-7.1v3.6Zm13.7 0v-3.6h-7.1v3.6ZM0 2200V0H1237.5V2200Z"/></clipPath>
<clipPath id="cx"><path d="M452.4 785.3v-3.6h-7.1v3.6Zm180.9 0v-3.6h-7v3.6Zm13.7 0v-3.6h-7v3.6Zm204.6 0v-3.6h-7.1v3.6Zm102.2 0v-3.6h-8.4v3.6ZM0 2200V0H1237.5V2200Z"/></clipPath>
<clipPath id="cy"><path d="M459.5 1080.3v-3.6h-7.1v3.6Zm180.9 0v-3.6h-7.1v3.6Zm13.7 0v-3.6H647v3.6Zm145.1 0v-3.6h-7.1v3.6Zm109.2 0v-3.6h-7.7v3.6ZM0 2200V0H1237.5V2200Z"/></clipPath>
<clipPath id="cz"><path d="M440.5 1357v-3.6h-7.1v3.6Zm180.9 0v-3.6h-7.1v3.6Zm13.7 0v-3.6H628v3.6Zm204.6 0v-3.6h-7.1v3.6Zm102.2 0v-3.6h-8.5v3.6ZM0 2200V0H1237.5V2200Z"/></clipPath>
<clipPath id="c10"><path d="M441 1620.4v-3.7h-7.2v3.7Zm183.3 0v-3.7h-7.1v3.7Zm13.9 0v-3.7H631v3.7Zm197.1 0v-3.7H822.4v3.7ZM0 2200V0H1237.5V2200Z"/></clipPath>
<clipPath id="c11"><path d="M455.8 1906.1v-3.6h-7.1v3.6Zm180.9 0v-3.6h-7v3.6Zm13.7 0v-3.6h-7v3.6Zm161.3 0v-3.6h-7.6v3.6ZM0 2200V0H1237.5V2200Z"/></clipPath>
<clipPath id="c12"><path d="M744.8 2056.9v-5.1h-13v5.1Zm91 0v-5.1h-13v5.1Zm61.2 0v-5.1H882.9v5.1ZM0 2200V0H1237.5V2200Z"/></clipPath>
<style type="text/css"><![CDATA[
.g0{
fill: #FFF;
}
.g1{
fill: #CD9B7B;
}
.g2{
fill: #F6EEE0;
}
.g3{
fill: #F4E5CC;
}
.g4{
fill: none;
stroke: #CD9B7B;
stroke-width: 6.875;
stroke-miterlimit: 10;
}
.g5{
fill: none;
stroke: #CD9B7B;
stroke-width: 6.874;
stroke-miterlimit: 10;
}
.g6{
fill: #320B05;
}
]]></style>
</defs>
<g clip-path="url(#c0)">
<path d="M0 0H1237.5V2200H0V0Z" class="g0"/>
<path d="M0 0H1237.5V2200H0V0Z" class="g2"/>
</g>
<g clip-path="url(#c1)" opacity="0.4">
<path fill-rule="evenodd" d="M20.9 32.6C11 -33.2 -43.5 -59.2 -65.4 -68.9c-19.5 -8.5 -23.8 -24.4 -23.8 -24.4c0 0 -5.3 17.9 -5.3 26.4c0 8.6 -1.9 48.9 13.9 82.4c15.8 33.6 64 45.5 77.8 62C11 94 5.7 123 5.7 123c0 0 -.6 -23.1 -16.4 -36.9C-26.5 72.2 -65.4 72.2 -87.2 32.7C-109 -6.8 -110.8 -80.7 -91.8 -108.4c9.3 -13.6 .7 7.2 15.2 20.4c13.4 12.3 53.9 24.5 77.7 48.8C28.3 -11.5 21.6 34 20.9 32.6Z" class="g1"/>
<path fill-rule="evenodd" d="M41.2 29.9C66.8 21.8 77 15.7 83.4 -6.2c6.5 -22.4 -6.3 -33.2 10.5 -63.6C67.3 -43.7 81.2 -25 70.4 -3.9C59.9 16.7 41.2 28.4 41.2 29.9Z" class="g1"/>
<path fill-rule="evenodd" d="M93.6 57.4c19.9 18 30.3 23.8 52.5 18.3c22.6 -5.6 25.6 -22 60.4 -22.6C170.5 43 161.3 64.4 137.6 65.7c-23.2 1.1 -42.7 -9.1 -44 -8.3Z" class="g1"/>
<path fill-rule="evenodd" d="M97.3 120.7c-5.7 26.2 -5.5 38.1 10.3 54.6c16.2 16.8 31.9 11.2 49.8 41C148.1 180.1 125 182.8 112.1 162.9C99.5 143.4 98.6 121.4 97.3 120.7Z" class="g1"/>
<path fill-rule="evenodd" d="M50.6 151C25.1 159.2 14.9 165.3 8.5 187.2C2 209.6 14.7 220.5 -2 250.9c26.6 -26.2 12.7 -44.8 23.4 -66C32 164.3 50.6 152.5 50.6 151Z" class="g1"/>
<path fill-rule="evenodd" d="M2.8 123.6c-19.7 -18 -30.1 -23.8 -52.3 -18.4c-22.6 5.6 -25.7 22.1 -60.4 22.7c36 10 45.2 -11.4 68.9 -12.6c23.1 -1.2 42.6 9.1 43.8 8.3Z" class="g1"/>
<path fill-rule="evenodd" d="M82.3 38.7C134.5 -2.8 129.7 -63 127.1 -86.9c-2.4 -21.1 9.2 -32.7 9.2 -32.7c0 0 -18 4.3 -25.5 8.6c-7.4 4.3 -43.2 22.7 -64.5 53.2C25.1 -27.2 38.9 20.3 31.6 40.6C24.2 60.8 -3.5 70.7 -3.5 70.7c0 0 19.6 -12.1 23.7 -32.7c4 -20.7 -15.4 -54.3 8 -92.9c23.4 -38.7 86.4 -77.2 119.9 -74.6c16.5 1.3 -5.8 4.2 -10.1 23.4c-3.9 17.7 5.8 59 -3.3 91.8C124.3 23 81.5 39.9 82.3 38.7Z" class="g1"/>
<path fill-rule="evenodd" d="M108.6 92.9C170.7 117.3 220.5 83 239.8 68.8c17.2 -12.6 33 -8.3 33 -8.3c0 0 -12.8 -13.5 -20.2 -17.8C245.2 38.4 211.3 16.6 174.3 13.5C137.2 10.4 102.8 46.1 81.6 49.9C60.4 53.6 37.9 34.6 37.9 34.6c0 0 20.3 10.9 40.3 4.1C98.1 32 117.5 -1.7 162.7 -.7c45.2 .8 110 36.1 124.6 66.5c7.1 14.9 -6.6 -3 -25.3 2.9c-17.4 5.5 -48.3 34.5 -81.2 43C143.2 121.4 107.1 92.8 108.6 92.9Z" class="g1"/>
<path fill-rule="evenodd" d="M71.2 141.2c9.9 66 64.5 92 86.4 101.6c19.5 8.6 23.7 24.4 23.7 24.4c0 0 5.3 -17.8 5.3 -26.4c0 -8.6 2 -48.8 -13.8 -82.4C156.9 124.7 108.8 112.8 94.9 96.3C81.1 79.8 86.3 50.8 86.3 50.8c0 0 .7 23.1 16.5 37c15.9 13.8 54.8 13.8 76.6 53.4c21.7 39.6 23.6 113.4 4.6 141.2c-9.3 13.6 -.7 -7.2 -15.2 -20.5C155.4 249.6 114.8 237.4 91 213.1C63.8 185.4 70.5 139.9 71.2 141.2Z" class="g1"/>
<path fill-rule="evenodd" d="M11.4 134.4C-40.7 175.9 -35.9 236.2 -33.3 260c2.4 21.2 -9.2 32.8 -9.2 32.8c0 0 18 -4.3 25.5 -8.6c7.4 -4.3 43.1 -22.7 64.3 -53.3c21.3 -30.5 7.5 -78.1 14.8 -98.4c7.4 -20.2 35.2 -30.2 35.2 -30.2c0 0 -19.7 12.1 -23.8 32.8c-4.1 20.6 15.4 54.3 -8 93c-23.4 38.6 -86.3 77.1 -119.9 74.6c-16.4 -1.3 5.9 -4.3 10.2 -23.4c3.9 -17.8 -5.8 -59 3.3 -91.8c10.4 -37.4 53.1 -54.4 52.3 -53.1Z" class="g1"/>
<path fill-rule="evenodd" d="M-14.1 80.9c-62.1 -24.4 -111.9 9.8 -131.2 24c-17.2 12.6 -33 8.4 -33 8.4c0 0 12.7 13.5 20.2 17.7c7.4 4.3 41.3 26.2 78.3 29.3c37.1 3.1 71.4 -32.7 92.5 -36.4c21.3 -3.8 43.8 15.3 43.8 15.3c0 0 -20.4 -11 -40.3 -4.2c-19.8 6.8 -39.3 40.5 -84.4 39.6c-45.2 -1 -110.1 -36.3 -124.6 -66.6c-7.1 -14.9 6.6 2.9 25.3 -2.9c17.4 -5.5 48.2 -34.5 81.2 -43c37.6 -9.7 73.6 18.9 72.2 18.8Z" class="g1"/>
</g>
<g clip-path="url(#c2)" opacity="0.4">
<path fill-rule="evenodd" d="M1140.6 484.4c-9.9 -66 -64.5 -92 -86.4 -101.6c-19.5 -8.6 -23.7 -24.4 -23.7 -24.4c0 0 -5.3 17.8 -5.3 26.4c0 8.5 -2 48.8 13.8 82.4c15.9 33.7 64 45.5 77.9 62c13.8 16.5 8.6 45.6 8.6 45.6c0 0 -.7 -23.1 -16.5 -37C1093.1 524 1054.2 524 1032.4 484.4c-21.7 -39.6 -23.6 -113.5 -4.6 -141.2c9.3 -13.6 .7 7.2 15.2 20.4c13.4 12.3 54 24.6 77.8 48.9c27.3 27.7 20.5 73.2 19.8 71.9Z" class="g1"/>
<path fill-rule="evenodd" d="M1110.3 511.3c5.7 -26.1 5.6 -38 -10.3 -54.5c-16.1 -16.9 -31.9 -11.2 -49.8 -41c9.3 36.2 32.5 33.4 45.4 53.3c12.6 19.5 13.4 41.5 14.7 42.2Z" class="g1"/>
<path fill-rule="evenodd" d="M1161 481.6c25.5 -8.1 35.7 -14.2 42.1 -36.2c6.5 -22.4 -6.2 -33.2 10.6 -63.6c-26.7 26.2 -12.8 44.8 -23.5 65.9c-10.6 20.7 -29.2 32.5 -29.2 33.9Z" class="g1"/>
<path fill-rule="evenodd" d="M1213.4 509.1c19.8 18 30.2 23.8 52.4 18.3c22.7 -5.5 25.7 -22 60.4 -22.6c-36 -10 -45.2 11.4 -68.9 12.6c-23.1 1.2 -42.6 -9.1 -43.9 -8.3Z" class="g1"/>
<path fill-rule="evenodd" d="M1217 572.4c-5.6 26.2 -5.5 38.1 10.4 54.6c16.1 16.8 31.9 11.2 49.8 41c-9.3 -36.2 -32.5 -33.5 -45.4 -53.4c-12.6 -19.4 -13.5 -41.5 -14.8 -42.2Z" class="g1"/>
<path fill-rule="evenodd" d="M1170.3 602.8c-25.5 8.1 -35.7 14.2 -42.1 36.2c-6.5 22.4 6.3 33.2 -10.6 63.6c26.7 -26.2 12.8 -44.8 23.6 -65.9c10.5 -20.7 29.2 -32.5 29.1 -33.9Z" class="g1"/>
<path fill-rule="evenodd" d="M1122.6 575.3c-19.9 -18 -30.2 -23.8 -52.5 -18.3c-22.6 5.5 -25.6 22 -60.4 22.6c36 10 45.2 -11.4 68.9 -12.6c23.2 -1.2 42.7 9.1 44 8.3Z" class="g1"/>
<path fill-rule="evenodd" d="M1202 490.4c52.2 -41.5 47.4 -101.8 44.8 -125.6c-2.3 -21.2 9.3 -32.8 9.3 -32.8c0 0 -18.1 4.3 -25.5 8.6c-7.5 4.3 -43.3 22.7 -64.5 53.2c-21.2 30.6 -7.5 78.2 -14.8 98.5c-7.4 20.2 -35.1 30.2 -35.1 30.2c0 0 19.6 -12.2 23.7 -32.8c4.1 -20.6 -15.4 -54.3 8 -93c23.4 -38.6 86.4 -77.2 120 -74.6c16.4 1.3 -5.9 4.2 -10.1 23.4c-4 17.8 5.7 59 -3.4 91.8c-10.4 37.4 -53.2 54.3 -52.4 53.1Z" class="g1"/>
<path fill-rule="evenodd" d="M1228.3 544.6c62.1 24.4 111.9 -9.9 131.2 -24c17.2 -12.6 33.1 -8.4 33.1 -8.4c0 0 -12.8 -13.5 -20.3 -17.8c-7.4 -4.3 -41.2 -26.1 -78.3 -29.2c-37.1 -3.1 -71.4 32.7 -92.6 36.4c-21.2 3.8 -43.7 -15.3 -43.7 -15.3c0 0 20.3 11 40.2 4.2c19.9 -6.8 39.4 -40.5 84.5 -39.6c45.2 .9 110.1 36.3 124.6 66.6c7.1 14.9 -6.6 -3 -25.3 2.9c-17.3 5.5 -48.2 34.5 -81.2 43c-37.6 9.7 -73.6 -18.9 -72.2 -18.8Z" class="g1"/>
<path fill-rule="evenodd" d="M1190.9 592.9c9.9 66 64.5 92 86.4 101.6c19.5 8.6 23.8 24.4 23.8 24.4c0 0 5.3 -17.8 5.3 -26.4c0 -8.5 1.9 -48.8 -13.9 -82.4c-15.8 -33.7 -64 -45.5 -77.8 -62c-13.9 -16.5 -8.6 -45.6 -8.6 -45.6c0 0 .6 23.1 16.5 37c15.8 13.8 54.7 13.8 76.5 53.4c21.8 39.6 23.6 113.5 4.6 141.2c-9.3 13.6 -.7 -7.2 -15.1 -20.4c-13.5 -12.3 -54 -24.6 -77.9 -48.9c-27.2 -27.7 -20.5 -73.2 -19.8 -71.9Z" class="g1"/>
<path fill-rule="evenodd" d="M1131.1 586.1c-52.1 41.6 -47.3 101.8 -44.7 125.6c2.3 21.2 -9.3 32.8 -9.3 32.8c0 0 18.1 -4.3 25.5 -8.6c7.4 -4.3 43.3 -22.7 64.5 -53.2c21.2 -30.6 7.4 -78.2 14.8 -98.5C1189.2 564 1217 554 1217 554c0 0 -19.7 12.2 -23.7 32.8c-4.1 20.6 15.3 54.3 -8.1 93c-23.4 38.6 -86.4 77.2 -119.9 74.6c-16.5 -1.3 5.8 -4.2 10.1 -23.4c4 -17.7 -5.8 -59 3.4 -91.8c10.4 -37.4 53.2 -54.3 52.3 -53.1Z" class="g1"/>
<path fill-rule="evenodd" d="M1105.5 532.6c-62.1 -24.4 -111.9 9.9 -131.2 24c-17.2 12.6 -33 8.4 -33 8.4c0 0 12.8 13.5 20.2 17.8c7.4 4.3 41.3 26.1 78.4 29.2c37 3.1 71.4 -32.7 92.6 -36.4c21.2 -3.8 43.7 15.3 43.7 15.3c0 0 -20.3 -10.9 -40.2 -4.2c-20 6.8 -39.4 40.5 -84.6 39.6c-45.2 -.9 -110 -36.3 -124.6 -66.6c-7.1 -14.9 6.6 3 25.3 -2.9c17.4 -5.5 48.3 -34.5 81.2 -43c37.6 -9.7 73.7 18.9 72.2 18.8Z" class="g1"/>
</g>
<path clip-path="url(#c3)" d="M165.4 403.3h948.3V560H165.4V403.3Z" class="g3"/>
<path clip-path="url(#c4)" d="M229.6 403.3h819.7c35.5 0 64.2 28.8 64.2 64.2v28.3c0 35.4 -28.7 64.2 -64.2 64.2H229.6c-35.5 0 -64.2 -28.8 -64.2 -64.2V467.5c0 -35.4 28.7 -64.2 64.2 -64.2Z" class="g4"/>
<image clip-path="url(#c5)" preserveAspectRatio="none" x="81" y="365" width="326" height="243" xlink:href="img/1.jpg"/>
<path clip-path="url(#c6)" d="M123.8 362.1H365.1V611.2H123.8V362.1Z" class="g1"/>
<path clip-path="url(#c7)" d="M165.4 662.7h948.4V837.9H165.4V662.7Z" class="g3"/>
<path clip-path="url(#c8)" d="M229.6 662.7h819.7c35.5 0 64.2 28.8 64.2 64.2v46.8c0 35.5 -28.7 64.2 -64.2 64.2H229.6c-35.5 0 -64.2 -28.7 -64.2 -64.2V726.9c0 -35.4 28.7 -64.2 64.2 -64.2Z" class="g4"/>
<image clip-path="url(#c9)" preserveAspectRatio="none" x="11" y="632" width="467" height="244" xlink:href="img/2.jpg"/>
<path clip-path="url(#ca)" d="M123.8 629.5H365.1v249H123.8v-249Z" class="g1"/>
<path clip-path="url(#cb)" d="M165.4 932.4h948.1v174H165.4v-174Z" class="g3"/>
<path clip-path="url(#cc)" d="M229.5 932.4h820.1c35.4 0 64.1 28.7 64.1 64.2v45.6c0 35.5 -28.7 64.2 -64.1 64.2H229.5c-35.4 0 -64.1 -28.7 -64.1 -64.2V996.6c0 -35.5 28.7 -64.2 64.1 -64.2Z" class="g5"/>
<image clip-path="url(#cd)" preserveAspectRatio="none" x="127" y="900" width="376" height="251" xlink:href="img/3.jpg"/>
<path clip-path="url(#ce)" d="M123.8 901.2H365.1v249.1H123.8V901.2Z" class="g1"/>
<g clip-path="url(#cf)" opacity="0.4">
<path fill-rule="evenodd" d="M75.7 1681.9c-9.9 -66 -64.5 -92 -86.3 -101.6c-19.5 -8.6 -23.8 -24.4 -23.8 -24.4c0 0 -5.2 17.8 -5.2 26.3c0 8.6 -2 48.9 13.8 82.5c15.9 33.7 63.9 45.5 77.8 62c13.8 16.5 8.5 45.5 8.5 45.5c0 0 -.6 -23 -16.4 -36.9c-15.9 -13.9 -54.7 -13.9 -76.5 -53.4C-54.1 1642.3 -56 1568.4 -37 1540.7c9.3 -13.6 .7 7.2 15.2 20.4c13.4 12.3 53.9 24.5 77.7 48.8c27.2 27.8 20.5 73.3 19.8 72Z" class="g1"/>
<path fill-rule="evenodd" d="M45.4 1708.8c5.7 -26.2 5.5 -38.1 -10.3 -54.5C19 1637.4 3.2 1643 -14.6 1613.3c9.3 36.1 32.3 33.4 45.2 53.3c12.6 19.5 13.5 41.5 14.8 42.2Z" class="g1"/>
<path fill-rule="evenodd" d="M96.1 1679.1c25.5 -8.1 35.7 -14.2 42.1 -36.2c6.5 -22.4 -6.3 -33.2 10.6 -63.6c-26.7 26.2 -12.8 44.8 -23.6 65.9c-10.5 20.7 -29.2 32.5 -29.1 33.9Z" class="g1"/>
<path fill-rule="evenodd" d="M148.5 1706.6c19.8 18 30.2 23.8 52.4 18.3c22.6 -5.6 25.6 -22 60.4 -22.6c-36 -10 -45.2 11.4 -68.9 12.6c-23.1 1.2 -42.7 -9.1 -43.9 -8.3Z" class="g1"/>
<path fill-rule="evenodd" d="M152.1 1769.9c-5.7 26.2 -5.5 38.1 10.3 54.6c16.2 16.8 31.9 11.2 49.9 41c-9.4 -36.2 -32.5 -33.5 -45.4 -53.4c-12.6 -19.4 -13.5 -41.5 -14.8 -42.2Z" class="g1"/>
<path fill-rule="evenodd" d="M105.4 1800.2c-25.5 8.2 -35.7 14.3 -42.1 36.3c-6.5 22.4 6.3 33.2 -10.6 63.6c26.7 -26.2 12.8 -44.8 23.6 -66c10.5 -20.6 29.2 -32.4 29.1 -33.9Z" class="g1"/>
<path fill-rule="evenodd" d="M57.6 1772.8C37.8 1754.8 27.4 1749 5.2 1754.5c-22.5 5.5 -25.5 22 -60.3 22.6c36 10 45.2 -11.4 68.8 -12.6c23.2 -1.2 42.7 9.1 43.9 8.3Z" class="g1"/>
<path fill-rule="evenodd" d="M137.1 1687.9c52.2 -41.6 47.4 -101.8 44.8 -125.6c-2.3 -21.2 9.2 -32.8 9.2 -32.8c0 0 -18 4.3 -25.4 8.6c-7.5 4.3 -43.3 22.7 -64.5 53.2c-21.3 30.6 -7.5 78.2 -14.8 98.5C79 1710 51.2 1720 51.2 1720c0 0 19.7 -12.2 23.8 -32.8c4.1 -20.6 -15.4 -54.4 8 -93c23.4 -38.6 86.4 -77.2 120 -74.6c16.4 1.3 -5.9 4.2 -10.2 23.4c-3.9 17.7 5.8 59 -3.3 91.8c-10.4 37.4 -53.2 54.3 -52.4 53.1Z" class="g1"/>
<path fill-rule="evenodd" d="M163.4 1742.1c62.1 24.4 111.9 -9.9 131.2 -24c17.2 -12.6 33 -8.4 33 -8.4c0 0 -12.7 -13.5 -20.2 -17.8c-7.4 -4.3 -41.3 -26.1 -78.3 -29.2c-37.1 -3.1 -71.4 32.7 -92.6 36.4c-21.3 3.8 -43.8 -15.3 -43.8 -15.3c0 0 20.4 10.9 40.3 4.2c19.9 -6.8 39.4 -40.5 84.5 -39.6c45.2 .9 110.1 36.3 124.6 66.6c7.1 14.9 -6.6 -3 -25.3 2.9c-17.4 5.5 -48.2 34.5 -81.2 43C198 1770.6 162 1742 163.4 1742.1Z" class="g1"/>
<path fill-rule="evenodd" d="M126 1790.4c9.9 66 64.5 92 86.4 101.6c19.5 8.6 23.8 24.4 23.8 24.4c0 0 5.3 -17.8 5.3 -26.4c0 -8.5 1.9 -48.8 -13.9 -82.4c-15.8 -33.7 -64 -45.6 -77.9 -62c-13.8 -16.5 -8.5 -45.6 -8.5 -45.6c0 0 .6 23.1 16.5 37c15.8 13.8 54.7 13.8 76.5 53.4c21.8 39.6 23.6 113.4 4.6 141.2c-9.3 13.6 -.7 -7.2 -15.2 -20.4c-13.4 -12.4 -54 -24.6 -77.8 -48.9c-27.2 -27.7 -20.5 -73.2 -19.8 -71.9Z" class="g1"/>
<path fill-rule="evenodd" d="M66.2 1783.6C14 1825.1 18.8 1885.4 21.5 1909.2c2.3 21.2 -9.3 32.8 -9.3 32.8c0 0 18.1 -4.3 25.5 -8.6c7.4 -4.3 43.3 -22.7 64.5 -53.3c21.2 -30.5 7.4 -78.1 14.8 -98.4c7.3 -20.2 35.1 -30.2 35.1 -30.2c0 0 -19.7 12.1 -23.8 32.8c-4 20.6 15.4 54.3 -8 93C96.9 1915.9 33.9 1954.5 .4 1951.9c-16.4 -1.3 5.8 -4.2 10.1 -23.4c3.9 -17.8 -5.8 -59 3.3 -91.8c10.4 -37.4 53.2 -54.4 52.4 -53.1Z" class="g1"/>
<path fill-rule="evenodd" d="M40.6 1730.1c-62 -24.4 -111.8 9.9 -131.1 24c-17.2 12.6 -33 8.4 -33 8.4c0 0 12.8 13.5 20.2 17.8c7.4 4.2 41.3 26.1 78.3 29.2c37 3.1 71.4 -32.7 92.6 -36.4c21.2 -3.8 43.7 15.3 43.7 15.3c0 0 -20.3 -11 -40.3 -4.2c-19.9 6.8 -39.3 40.5 -84.4 39.6c-45.2 -1 -110 -36.3 -124.6 -66.6c-7.1 -14.9 6.6 3 25.3 -2.9c17.4 -5.5 48.3 -34.5 81.2 -43c37.5 -9.7 73.6 18.9 72.1 18.8Z" class="g1"/>
</g>
<path clip-path="url(#cg)" d="M165.4 1211h948.3v182.4H165.4V1211Z" class="g3"/>
<path clip-path="url(#ch)" d="M229.6 1211h819.7c35.5 0 64.2 28.7 64.2 64.2v54c0 35.5 -28.7 64.2 -64.2 64.2H229.6c-35.5 0 -64.2 -28.7 -64.2 -64.2v-54c0 -35.5 28.7 -64.2 64.2 -64.2Z" class="g5"/>
<image clip-path="url(#ci)" preserveAspectRatio="none" x="62" y="1179" width="365" height="244" xlink:href="img/4.jpg"/>
<path clip-path="url(#cj)" d="M123.8 1176.6H365.1v249H123.8v-249Z" class="g1"/>
<g clip-path="url(#ck)" opacity="0.4">
<path fill-rule="evenodd" d="M1244.7 2050.2c-9.9 -65.9 -64.4 -91.9 -86.4 -101.6c-19.5 -8.5 -23.7 -24.4 -23.7 -24.4c0 0 -5.3 17.8 -5.3 26.4c0 8.6 -2 48.8 13.8 82.5c15.9 33.6 64 45.5 77.9 62c13.8 16.5 8.6 45.5 8.6 45.5c0 0 -.7 -23.1 -16.5 -36.9c-15.9 -13.9 -54.8 -13.9 -76.6 -53.5c-21.7 -39.5 -23.6 -113.4 -4.6 -141.1c9.3 -13.6 .8 7.1 15.2 20.4c13.4 12.3 54 24.5 77.9 48.8c27.2 27.7 20.4 73.3 19.7 71.9Z" class="g1"/>
<path fill-rule="evenodd" d="M1214.4 2077.2c5.7 -26.2 5.6 -38.1 -10.3 -54.6c-16.1 -16.8 -31.9 -11.2 -49.8 -41c9.3 36.2 32.5 33.5 45.4 53.4c12.6 19.5 13.4 41.5 14.7 42.2Z" class="g1"/>
<path fill-rule="evenodd" d="M1274.5 2168.6c-25.6 8.2 -35.8 14.3 -42.1 36.2c-6.5 22.4 6.2 33.3 -10.6 63.7c26.6 -26.2 12.7 -44.8 23.5 -66c10.5 -20.6 29.2 -32.4 29.2 -33.9Z" class="g1"/>
<path fill-rule="evenodd" d="M1226.7 2141.2c-19.9 -18 -30.2 -23.8 -52.4 -18.4c-22.7 5.6 -25.7 22.1 -60.5 22.7c36 10 45.2 -11.4 68.9 -12.6c23.2 -1.2 42.7 9.1 44 8.3Z" class="g1"/>
<path fill-rule="evenodd" d="M1306.1 2056.3c52.2 -41.6 47.4 -101.8 44.8 -125.7c-2.3 -21.1 9.3 -32.7 9.3 -32.7c0 0 -18.1 4.3 -25.5 8.6c-7.5 4.3 -43.3 22.7 -64.5 53.2c-21.2 30.6 -7.4 78.2 -14.8 98.4c-7.4 20.3 -35.1 30.2 -35.1 30.2c0 0 19.6 -12.1 23.7 -32.7c4.1 -20.7 -15.4 -54.4 8 -93c23.4 -38.7 86.4 -77.2 120 -74.6c16.4 1.3 -5.9 4.2 -10.1 23.4c-4 17.7 5.7 59 -3.4 91.8c-10.4 37.4 -53.2 54.3 -52.4 53.1Z" class="g1"/>
<path fill-rule="evenodd" d="M1235.2 2152c-52.1 41.5 -47.3 101.8 -44.7 125.6c2.3 21.2 -9.3 32.8 -9.3 32.8c0 0 18.1 -4.3 25.5 -8.6c7.4 -4.3 43.3 -22.7 64.5 -53.3c21.2 -30.5 7.4 -78.2 14.8 -98.4c7.3 -20.2 35.1 -30.2 35.1 -30.2c0 0 -19.7 12.1 -23.7 32.8c-4.1 20.6 15.3 54.3 -8.1 93c-23.3 38.6 -86.4 77.1 -119.9 74.6c-16.5 -1.3 5.8 -4.3 10.1 -23.4c4 -17.8 -5.8 -59 3.4 -91.8c10.4 -37.5 53.2 -54.4 52.3 -53.1Z" class="g1"/>
<path fill-rule="evenodd" d="M1209.6 2098.5c-62.1 -24.5 -111.9 9.8 -131.2 24c-17.2 12.6 -33 8.4 -33 8.4c0 0 12.8 13.5 20.2 17.7c7.4 4.3 41.3 26.2 78.4 29.3c37 3.1 71.4 -32.7 92.6 -36.4c21.2 -3.8 43.7 15.3 43.7 15.3c0 0 -20.3 -11 -40.2 -4.2c-20 6.8 -39.4 40.5 -84.6 39.6c-45.2 -1 -110 -36.3 -124.6 -66.6c-7.1 -14.9 6.6 2.9 25.3 -2.9c17.4 -5.5 48.3 -34.5 81.2 -43c37.6 -9.8 73.7 18.9 72.2 18.8Z" class="g1"/>
</g>
<path clip-path="url(#cl)" fill-rule="evenodd" d="M1162 972.2v.8c-21.4 0 -50 .1 -50 29.3v97.5h-.8v-97.5c0 -29.2 -28.7 -29.3 -50 -29.3v-.8c46.6 0 50 -7.6 50 -50h.8c0 42.4 3.4 50 50 50Z" class="g1"/>
<path fill-rule="evenodd" d="M1165.5 1037.8v.3c-8.6 0 -20.1 .1 -20.1 11.8v39.4h-.3v-39.4c0 -11.7 -11.6 -11.8 -20.2 -11.8v-.3c18.8 0 20.2 -3 20.2 -20.2h.3c0 17.2 1.3 20.2 20.1 20.2Z" class="g1"/>
<path clip-path="url(#cm)" fill-rule="evenodd" d="M172.1 1266.7v.8c-21.3 0 -49.9 .2 -49.9 29.3v97.6h-.8v-97.6c0 -29.1 -28.7 -29.3 -50 -29.3v-.8c46.6 0 50 -7.5 50 -49.9h.8c0 42.4 3.4 49.9 49.9 49.9Z" class="g1"/>
<path fill-rule="evenodd" d="M175.7 1332.4v.3c-8.6 0 -20.1 0 -20.1 11.8v39.3h-.3v-39.3c0 -11.8 -11.6 -11.8 -20.2 -11.8v-.3c18.8 0 20.2 -3.1 20.2 -20.2h.3c0 17.1 1.3 20.2 20.1 20.2Z" class="g1"/>
<path clip-path="url(#cn)" fill-rule="evenodd" d="M1137.6 136.5v.7c-21.3 0 -50 .2 -50 29.4v97.5h-.8V166.6c0 -29.2 -28.7 -29.4 -50 -29.4v-.7c46.6 0 50 -7.6 50 -50h.8c0 42.4 3.4 50 50 50Z" class="g1"/>
<path fill-rule="evenodd" d="M1141.2 202.1v.3c-8.6 0 -20.2 .1 -20.2 11.8v39.4h-.3V214.2c0 -11.7 -11.6 -11.8 -20.2 -11.8v-.3c18.8 0 20.2 -3.1 20.2 -20.2h.3c0 17.1 1.4 20.2 20.2 20.2Z" class="g1"/>
<path clip-path="url(#co)" d="M213.4 1488.7H1114v182.4H213.4V1488.7Z" class="g3"/>
<path clip-path="url(#cp)" d="M277.6 1488.7h771.9c35.5 0 64.2 28.7 64.2 64.1v54.1c0 35.4 -28.7 64.2 -64.2 64.2H277.6c-35.4 0 -64.1 -28.8 -64.1 -64.2v-54.1c0 -35.4 28.7 -64.1 64.1 -64.1Z" class="g5"/>
<path clip-path="url(#cq)" d="M213.4 1759.5h900.2V1944H213.4V1759.5Z" class="g3"/>
<path clip-path="url(#cr)" d="M277.6 1759.5h772c35.4 0 64.1 28.7 64.1 64.1v56.2c0 35.5 -28.7 64.2 -64.1 64.2h-772c-35.4 0 -64.1 -28.7 -64.1 -64.2v-56.2c0 -35.4 28.7 -64.1 64.1 -64.1Z" class="g4"/>
<image clip-path="url(#cs)" preserveAspectRatio="none" x="62" y="1453" width="365" height="243" xlink:href="img/5.jpg"/>
<path clip-path="url(#ct)" d="M123.8 1449.7H365.1v249.1H123.8V1449.7Z" class="g1"/>
<image clip-path="url(#cu)" preserveAspectRatio="none" x="123" y="1730" width="243" height="244" xlink:href="img/6.jpg"/>
<path clip-path="url(#cv)" d="M123.8 1727.4H365.1v249H123.8v-249Z" class="g1"/>
<path clip-path="url(#cw)" d="M418.3 520.8h619.4v2.3H418.3v-2.3Z" class="g6"/>
<path d="M1037.7 520.8h6.2v2.3h-6.2v-2.3Z" class="g6"/>
<path clip-path="url(#cx)" d="M414.9 782.3h606.4v2.2H414.9v-2.2Z" class="g6"/>
<path d="M1021.3 782.3h6.2v2.2h-6.2v-2.2Z" class="g6"/>
<path clip-path="url(#cy)" d="M422 1077.3h640.3v2.3H422v-2.3Z" class="g6"/>
<path d="M1062.3 1077.3h6.3v2.3h-6.3v-2.3Z" class="g6"/>
<path clip-path="url(#cz)" d="M403 1354h606.3v2.3H403V1354Z" class="g6"/>
<path clip-path="url(#c10)" d="M403 1617.3h640.4v2.3H403v-2.3Z" class="g6"/>
<path clip-path="url(#c11)" d="M411.5 1903.1h629v2.3h-629v-2.3Z" class="g6"/>
<path d="M1040.5 1903.1h6.2v2.3h-6.2v-2.3Z" class="g6"/>
<path clip-path="url(#c12)" d="M593.4 2052.4h457v3.4h-457v-3.4Z" class="g6"/>
</svg>